<svg width="27" height="27" viewBox="0 0 27 27" fill="none" xmlns="http://www.w3.org/2000/svg">
<path d="M19.125 20.25C17.8762 20.25 16.875 21.2512 16.875 22.5C16.875 23.0967 17.1121 23.669 17.534 24.091C17.956 24.5129 18.5283 24.75 19.125 24.75C19.7217 24.75 20.294 24.5129 20.716 24.091C21.1379 23.669 21.375 23.0967 21.375 22.5C21.375 21.9033 21.1379 21.331 20.716 20.909C20.294 20.4871 19.7217 20.25 19.125 20.25ZM1.125 2.25V4.5H3.375L7.425 13.0387L5.895 15.795C5.72625 16.11 5.625 16.4812 5.625 16.875C5.625 17.4717 5.86205 18.044 6.28401 18.466C6.70597 18.8879 7.27826 19.125 7.875 19.125H21.375V16.875H8.3475C8.27291 16.875 8.20137 16.8454 8.14863 16.7926C8.09588 16.7399 8.06625 16.6683 8.06625 16.5938C8.06625 16.5375 8.0775 16.4925 8.1 16.4587L9.1125 14.625H17.4937C18.3375 14.625 19.08 14.1525 19.4625 13.4663L23.49 6.1875C23.5687 6.0075 23.625 5.81625 23.625 5.625C23.625 5.32663 23.5065 5.04048 23.2955 4.8295C23.0845 4.61853 22.7984 4.5 22.5 4.5H5.86125L4.80375 2.25M7.875 20.25C6.62625 20.25 5.625 21.2512 5.625 22.5C5.625 23.0967 5.86205 23.669 6.28401 24.091C6.70597 24.5129 7.27826 24.75 7.875 24.75C8.47174 24.75 9.04403 24.5129 9.46599 24.091C9.88795 23.669 10.125 23.0967 10.125 22.5C10.125 21.9033 9.88795 21.331 9.46599 20.909C9.04403 20.4871 8.47174 20.25 7.875 20.25Z" fill="#290D01"/>
</svg>
