<svg width="19" height="13" viewBox="0 0 19 13" fill="none" xmlns="http://www.w3.org/2000/svg">
<path d="M1.75016 0.0415039H8.2085C8.55107 0.0415039 8.87961 0.17759 9.12184 0.419824C9.36408 0.662059 9.50016 0.990599 9.50016 1.33317C9.50016 1.67574 9.36408 2.00428 9.12184 2.24652C8.87961 2.48875 8.55107 2.62484 8.2085 2.62484H1.75016C1.40759 2.62484 1.07905 2.48875 0.836817 2.24652C0.594582 2.00428 0.458496 1.67574 0.458496 1.33317C0.458496 0.990599 0.594582 0.662059 0.836817 0.419824C1.07905 0.17759 1.40759 0.0415039 1.75016 0.0415039ZM10.7918 10.3748H17.2502C17.5927 10.3748 17.9213 10.5109 18.1635 10.7532C18.4057 10.9954 18.5418 11.3239 18.5418 11.6665C18.5418 12.0091 18.4057 12.3376 18.1635 12.5798C17.9213 12.8221 17.5927 12.9582 17.2502 12.9582H10.7918C10.4493 12.9582 10.1207 12.8221 9.87848 12.5798C9.63625 12.3376 9.50016 12.0091 9.50016 11.6665C9.50016 11.3239 9.63625 10.9954 9.87848 10.7532C10.1207 10.5109 10.4493 10.3748 10.7918 10.3748ZM1.75016 5.20817H17.2502C17.5927 5.20817 17.9213 5.34426 18.1635 5.58649C18.4057 5.82873 18.5418 6.15727 18.5418 6.49984C18.5418 6.84241 18.4057 7.17095 18.1635 7.41318C17.9213 7.65542 17.5927 7.7915 17.2502 7.7915H1.75016C1.40759 7.7915 1.07905 7.65542 0.836817 7.41318C0.594582 7.17095 0.458496 6.84241 0.458496 6.49984C0.458496 6.15727 0.594582 5.82873 0.836817 5.58649C1.07905 5.34426 1.40759 5.20817 1.75016 5.20817Z" fill="white"/>
</svg>
