<svg width="33" height="43" viewBox="0 0 33 43" fill="none" xmlns="http://www.w3.org/2000/svg">
<path d="M16.3338 5.75276e-06C16.236 0.000195304 16.1357 0.00458343 16.0458 0.0411864C15.6463 0.20439 15.7672 0.818908 15.7672 1.16224C15.7672 1.9494 15.4905 2.99034 16.5409 2.98857C16.6663 2.98834 16.8074 3.00099 16.9267 2.95511C17.3572 2.78981 17.2593 2.18997 17.2593 1.82628C17.2593 1.01848 17.5072 -0.00535387 16.4303 0.000299971C16.3986 0.000456841 16.3665 -5.96096e-05 16.3338 5.75276e-06ZM28.3001 4.4937C27.8199 4.49435 27.3269 4.53795 26.8738 4.53795H22.2325H7.92092H4.88188C4.47686 4.53795 3.91983 4.44058 3.5568 4.65381C3.00644 4.97655 2.86374 6.12491 2.68195 6.6963C2.61122 6.91949 2.5075 7.18848 2.62628 7.41339C2.80973 7.7617 3.52757 7.90704 3.88729 7.96902C4.02488 7.45331 4.16894 6.5693 4.60767 6.22983C5.00386 5.9237 5.62932 6.03226 6.09734 6.03226H9.63384H23.4479H26.9291C27.4021 6.03226 28.0151 5.92553 28.4107 6.24268C28.8627 6.60428 28.9141 7.45873 29.1395 7.96902C29.4981 7.88601 30.1981 7.76407 30.3843 7.41002C30.5208 7.14974 30.34 6.78408 30.2521 6.53045C30.0366 5.90755 29.9203 4.69742 29.1395 4.5562C28.8718 4.50776 28.5882 4.49311 28.3001 4.4937ZM7.24135 7.55119C7.03677 7.55315 6.83641 7.56779 6.65013 7.611C5.8572 7.79488 5.77321 9.03914 5.54224 9.68491C4.75428 11.8887 4.06809 14.1465 3.37131 16.3808C2.59882 18.8573 1.81505 21.3449 0.966316 23.7966C0.718771 24.512 0.497669 25.2362 0.258407 25.9546C0.15563 26.2636 -0.0508998 26.6752 0.0115377 27.0061C0.0938741 27.4408 0.523914 27.6699 0.848274 27.9123C1.65114 28.5128 2.4684 29.0967 3.27957 29.6859C6.46676 32.0006 9.6334 34.3461 12.8388 36.6355C13.7296 37.2714 14.6003 37.9359 15.491 38.5723C15.8165 38.8047 16.2161 39.1876 16.6515 39.0952C17.1162 38.9966 17.5455 38.5495 17.9223 38.2794C18.8097 37.643 19.7004 37.0067 20.5745 36.3514C23.4362 34.2065 26.3704 32.156 29.2498 30.0348C30.1665 29.3599 31.0871 28.6885 32.0126 28.0258C32.3795 27.7629 32.9066 27.494 32.989 27.0061C33.0481 26.6528 32.8547 26.285 32.7536 25.9546C32.516 25.1755 32.2491 24.404 31.9944 23.6304C31.0854 20.8674 30.2489 18.0782 29.2974 15.3294C28.6702 13.5176 28.1486 11.6681 27.5369 9.85074C27.3391 9.26319 27.2003 8.17362 26.7052 7.7711C26.3245 7.46186 25.6732 7.58194 25.2162 7.58194H21.6797H11.4574H8.25244C7.93472 7.58194 7.5823 7.54825 7.24135 7.55119ZM14.5167 9.03703C14.7309 9.03899 14.9249 9.06828 15.0108 9.1647C15.176 9.35016 15.0489 10.0457 15.0489 10.2935V13.448V25.9546H8.86019V14.3887V10.8468C8.86019 10.3682 8.74213 9.70914 8.87808 9.25017C8.97478 8.92394 9.96478 9.07588 10.2416 9.07588H13.7781C13.9326 9.07588 14.2412 9.03422 14.5167 9.03703ZM23.6665 9.05324C23.828 9.05128 23.9848 9.06756 24.078 9.14141C24.2249 9.25833 24.1663 9.57552 24.1663 9.73994V11.4555V18.4284V25.9546H19.6352C19.2706 25.9546 18.3008 26.1277 18.0107 25.8978C17.8212 25.7474 17.9223 25.1763 17.9223 24.9585V22.2469V12.5069V10.072C17.9223 9.83732 17.8305 9.34547 18.0107 9.16471C18.177 8.99809 18.5922 9.07589 18.8066 9.07589H20.906H23.227C23.3389 9.07589 23.505 9.0554 23.6665 9.05324ZM7.25787 9.24206H7.36849C7.35798 12.9816 7.31321 16.7317 7.31321 20.4759C7.31321 22.2134 7.05188 24.1918 7.36849 25.8995L5.54493 25.9549H1.89782L2.371 24.3499L3.73521 20.1439L7.25787 9.24206ZM25.7686 9.24206L29.2785 20.1439L30.4842 23.8519L31.1287 25.9549H25.7136V13.7246V10.4594L25.7686 9.24206ZM9.39946 27.4107C9.6748 27.4081 9.98616 27.4488 10.1313 27.4488H13.7228C13.9902 27.4488 14.8928 27.3074 15.0381 27.5772C15.1232 27.7348 15.0489 28.0472 15.0489 28.2237V29.9392V34.0343C15.0489 34.777 14.9688 35.5719 15.1041 36.3035C14.5864 36.2006 14.0923 35.6819 13.6674 35.3787C12.5733 34.5978 11.4872 33.8037 10.4075 33.0035C9.98642 32.6913 9.17739 32.3255 8.91713 31.8662C8.64583 31.3875 8.86015 30.2659 8.86015 29.718V28.1683C8.86015 27.9956 8.8022 27.6826 8.91713 27.5377C8.9928 27.4419 9.18531 27.4129 9.39946 27.4107ZM18.5999 27.4107C18.8718 27.4126 19.1576 27.4488 19.3037 27.4488H22.8955C23.1536 27.4488 23.9364 27.3186 24.1093 27.5377C24.2165 27.6732 24.1663 27.9518 24.1663 28.1129V29.6626C24.1663 30.2154 24.3883 31.3807 24.1093 31.8594C23.8253 32.347 22.9646 32.752 22.5087 33.0774C21.4903 33.8041 20.4737 34.5397 19.4697 35.2868C19.0143 35.6255 18.4815 36.1718 17.9223 36.3035C18.0306 34.1956 17.9223 32.051 17.9223 29.9392V28.2791C17.9223 28.0789 17.8627 27.7522 17.9793 27.5772C18.0699 27.4409 18.3279 27.4087 18.5999 27.4107ZM2.94805 27.4488H6.04239L7.23797 27.5059L7.31318 28.2791V30.7141C6.17269 30.206 5.05526 29.1339 4.05291 28.3828C3.72634 28.1379 3.079 27.847 2.94805 27.4488ZM26.9291 27.4488H30.0788C29.8533 27.8938 29.2075 28.206 28.808 28.4926C27.8051 29.2123 26.8121 30.1529 25.7136 30.7141V28.2791L25.802 27.5059L26.9291 27.4488ZM15.1042 40.177C14.9887 40.5688 14.9015 41.6286 15.1061 41.9939C15.2443 42.2407 15.6007 42.42 15.8228 42.586C16.0007 42.7188 16.3008 43.0317 16.5412 42.9974C16.7545 42.9664 16.9787 42.7265 17.1489 42.6042C17.3804 42.4382 17.7757 42.2497 17.9077 41.9868C18.0774 41.6492 17.9867 40.555 17.9226 40.177C17.486 40.3945 17.0921 40.9243 16.5965 40.9941C16.0621 41.0688 15.5208 40.4371 15.1042 40.177Z" fill="#A9A9A9"/>
</svg>
