<svg width="279" height="66" viewBox="0 0 279 66" fill="none" xmlns="http://www.w3.org/2000/svg">
<path d="M9.60321 56.3395L19.2064 46.6791L32.7837 46.5166C47.3367 46.3425 48.82 46.146 49.2728 44.3325C49.6317 42.895 49.2416 42.0842 46.7909 39.1736C39.921 31.0142 37.217 21.8935 39.58 14.8505C42.2211 6.97845 47.6976 1.76199 54.728 0.421673C56.1406 0.152364 72.1828 0.000642304 99.244 0.000642304H141.552L131.71 9.90053L121.868 19.8004H116.252H110.636L110.02 21.966C109.682 23.1571 108.639 27.0088 107.704 30.5253C106.769 34.0418 104.263 43.3776 102.136 51.2714C100.009 59.1653 98.2679 65.7085 98.2679 65.8119C98.2679 65.9153 93.4671 65.9999 87.5993 65.9999C81.7316 65.9999 76.9307 65.8791 76.9307 65.7315C76.9307 65.5839 78.4869 59.6904 80.3889 52.6348C82.2909 45.5792 84.9846 35.5561 86.3748 30.3612C87.7651 25.1664 88.9984 20.665 89.1155 20.3582C89.4117 19.5823 69.0303 19.5482 67.5333 20.3222C65.1116 21.5743 65.3448 23.0713 68.5447 26.8129C73.2456 32.3099 76.0238 38.3123 76.4111 43.8085C77.1547 54.3636 71.1036 62.6237 60.6284 65.3524C58.4827 65.9113 54.1594 66 29.0711 66H0L9.60321 56.3395ZM122.578 65.2781C122.686 64.8811 123.838 60.5407 125.138 55.6329L127.502 46.7098L135.146 46.5091C147.128 46.1946 148.358 45.1479 143.489 39.4118C137.275 32.0916 134.231 23.3727 135.59 16.7916C136.768 11.0901 141.155 4.88723 145.809 2.34075C149.961 0.0689466 150.812 0.0156017 183.021 0.00779091L212.584 0L218.925 12.1454C222.412 18.8254 225.388 24.162 225.538 24.0047C225.763 23.768 232.036 0.774011 232.036 0.186114C232.036 0.0836847 242.603 0 255.518 0H279L269.367 9.83655L259.734 19.6731L253.964 19.7364L248.195 19.7997L242.04 42.7963L235.884 65.793H225.104H214.324L208.163 54.0368C204.774 47.571 201.874 42.1433 201.718 41.9754C201.561 41.8076 199.975 47.1442 198.193 53.8347L194.953 65.9992H184.361C176.154 65.9992 173.772 65.8831 173.781 65.4836C173.787 65.2 176.53 54.7942 179.875 42.3597L185.956 19.7514L174.949 19.8786C164.305 20.0017 163.913 20.0352 163.057 20.8965C161.819 22.1426 162.195 23.2036 165.17 26.846C170.544 33.4269 172.948 39.1211 172.948 45.2691C172.948 55.2837 167.485 62.4389 157.773 65.1445C154.909 65.9424 153.631 65.9991 138.543 65.9991C123.35 65.9991 122.394 65.9567 122.578 65.2781ZM242.548 62.3906C243.096 60.4055 244.216 56.2289 245.038 53.1094L246.531 47.4376H255.697C260.738 47.4376 264.868 47.5768 264.875 47.747C264.881 47.9172 263.82 52.093 262.516 57.0267L260.144 65.9971L250.848 65.9984L241.551 65.9996L242.548 62.3906Z" fill="white"/>
</svg>
